<?xml version="1.0" encoding="UTF-8"?>
<svg width="17px" height="17px" viewBox="0 0 17 17" version="1.1" xmlns="http://www.w3.org/2000/svg" xmlns:xlink="http://www.w3.org/1999/xlink">
    <title>企业纳税人资格 </title>
    <defs>
        <filter id="filter-1">
            <feColorMatrix in="SourceGraphic" type="matrix" values="0 0 0 0 0.600000 0 0 0 0 0.600000 0 0 0 0 0.600000 0 0 0 1.000000 0"></feColorMatrix>
        </filter>
    </defs>
    <g id="页面-1备份" stroke="none" stroke-width="1" fill="none" fill-rule="evenodd" stroke-linecap="round" stroke-linejoin="round">
        <g id="4-1-商户资料" transform="translate(-26.000000, -288.000000)">
            <g id="编组-10" transform="translate(0.000000, 90.000000)">
                <g id="背景" transform="translate(0.000000, 10.000000)">
                    <g id="企业纳税人资格-" transform="translate(27.000000, 75.000000)" filter="url(#filter-1)">
                        <g transform="translate(0.000000, 114.000000)">
                            <path d="M4.2724,8.788 C3.6114,7.875 3.2214,6.753 3.2214,5.54 C3.2214,2.48 5.7024,-5.68434189e-14 8.7614,-5.68434189e-14 C11.8214,-5.68434189e-14 14.3014,2.48 14.3014,5.54 C14.3014,7.678 13.0894,9.534 11.3164,10.457" id="Stroke-21" stroke="#097DFF"></path>
                            <polygon id="Stroke-23" stroke="#097DFF" points="8.7617 7.6708 6.6307 5.5408 8.7617 3.4098 10.8917 5.5408"></polygon>
                            <path d="M-2.57571742e-14,11.977 L-2.57571742e-14,8.85 L5.843,8.85 C6.706,8.85 7.406,9.55 7.406,10.414 C7.406,11.277 6.706,11.977 5.843,11.977 L4.032,11.977" id="Stroke-25" stroke="#097DFF"></path>
                            <path d="M7.5712,10.7851 L14.0562,10.7851 C14.6532,10.7751 15.1412,11.0671 15.1412,11.6631 C15.1412,12.1011 14.8742,12.4941 14.4672,12.6551 L8.0642,15.1861 L0.0002,13.3761 L0.0002,11.4831" id="Stroke-27" stroke="#097DFF"></path>
                        </g>
                    </g>
                </g>
            </g>
        </g>
    </g>
</svg>